<mxfile host="app.diagrams.net" modified="2021-03-14T15:05:21.683Z" agent="5.0 (Windows NT 10.0; Win64; x64) AppleWebKit/537.36 (KHTML, like Gecko) Chrome/86.0.4240.198 Whale/2.9.115.7 Safari/537.36" etag="FKRYgROopccNGiSvEKMH" version="14.4.8" type="github">
  <diagram id="mx3B1GDzB-MR2W1VC4zE" name="Page-1">
    <mxGraphModel dx="1363" dy="633" grid="1" gridSize="10" guides="1" tooltips="1" connect="1" arrows="1" fold="1" page="1" pageScale="1" pageWidth="827" pageHeight="1169" math="0" shadow="0">
      <root>
        <mxCell id="0" />
        <mxCell id="1" parent="0" />
        <mxCell id="ej4aMwP51FxoH4-8wQIa-1" value="&lt;font style=&quot;font-size: 15px&quot;&gt;1&lt;/font&gt;" style="ellipse;whiteSpace=wrap;html=1;aspect=fixed;" vertex="1" parent="1">
          <mxGeometry x="380" y="240" width="40" height="40" as="geometry" />
        </mxCell>
        <mxCell id="ej4aMwP51FxoH4-8wQIa-2" value="&lt;font style=&quot;font-size: 15px&quot;&gt;4&lt;/font&gt;" style="ellipse;whiteSpace=wrap;html=1;aspect=fixed;" vertex="1" parent="1">
          <mxGeometry x="439.02" y="400" width="40" height="40" as="geometry" />
        </mxCell>
        <mxCell id="ej4aMwP51FxoH4-8wQIa-3" value="&lt;font style=&quot;font-size: 15px&quot;&gt;2&lt;/font&gt;" style="ellipse;whiteSpace=wrap;html=1;aspect=fixed;" vertex="1" parent="1">
          <mxGeometry x="160" y="400" width="40" height="40" as="geometry" />
        </mxCell>
        <mxCell id="ej4aMwP51FxoH4-8wQIa-4" value="&lt;font style=&quot;font-size: 15px&quot;&gt;3&lt;/font&gt;" style="ellipse;whiteSpace=wrap;html=1;aspect=fixed;" vertex="1" parent="1">
          <mxGeometry x="300" y="400" width="40" height="40" as="geometry" />
        </mxCell>
        <mxCell id="ej4aMwP51FxoH4-8wQIa-5" value="&lt;font style=&quot;font-size: 15px&quot;&gt;5&lt;/font&gt;" style="ellipse;whiteSpace=wrap;html=1;aspect=fixed;" vertex="1" parent="1">
          <mxGeometry x="560" y="400" width="40" height="40" as="geometry" />
        </mxCell>
        <mxCell id="ej4aMwP51FxoH4-8wQIa-7" value="" style="endArrow=classic;html=1;entryX=0.5;entryY=0;entryDx=0;entryDy=0;exitX=0.675;exitY=0.975;exitDx=0;exitDy=0;exitPerimeter=0;" edge="1" parent="1" source="ej4aMwP51FxoH4-8wQIa-1" target="ej4aMwP51FxoH4-8wQIa-2">
          <mxGeometry width="50" height="50" relative="1" as="geometry">
            <mxPoint x="330" y="290" as="sourcePoint" />
            <mxPoint x="570" y="380" as="targetPoint" />
            <Array as="points" />
          </mxGeometry>
        </mxCell>
        <mxCell id="ej4aMwP51FxoH4-8wQIa-8" value="1" style="edgeLabel;html=1;align=center;verticalAlign=middle;resizable=0;points=[];fontSize=14;" vertex="1" connectable="0" parent="ej4aMwP51FxoH4-8wQIa-7">
          <mxGeometry x="-0.22" relative="1" as="geometry">
            <mxPoint x="29.46" y="6.190000000000001" as="offset" />
          </mxGeometry>
        </mxCell>
        <mxCell id="ej4aMwP51FxoH4-8wQIa-10" value="" style="endArrow=classic;html=1;fontSize=14;entryX=0.5;entryY=0;entryDx=0;entryDy=0;exitX=0.325;exitY=1.025;exitDx=0;exitDy=0;exitPerimeter=0;" edge="1" parent="1" source="ej4aMwP51FxoH4-8wQIa-1" target="ej4aMwP51FxoH4-8wQIa-4">
          <mxGeometry width="50" height="50" relative="1" as="geometry">
            <mxPoint x="380" y="310" as="sourcePoint" />
            <mxPoint x="318" y="400" as="targetPoint" />
          </mxGeometry>
        </mxCell>
        <mxCell id="ej4aMwP51FxoH4-8wQIa-11" value="3" style="text;html=1;align=center;verticalAlign=middle;resizable=0;points=[];autosize=1;fontSize=14;" vertex="1" parent="1">
          <mxGeometry x="330" y="320" width="20" height="20" as="geometry" />
        </mxCell>
        <mxCell id="ej4aMwP51FxoH4-8wQIa-13" value="" style="endArrow=classic;html=1;fontSize=14;entryX=0.5;entryY=0;entryDx=0;entryDy=0;" edge="1" parent="1" source="ej4aMwP51FxoH4-8wQIa-1" target="ej4aMwP51FxoH4-8wQIa-3">
          <mxGeometry width="50" height="50" relative="1" as="geometry">
            <mxPoint x="520" y="430" as="sourcePoint" />
            <mxPoint x="570" y="380" as="targetPoint" />
          </mxGeometry>
        </mxCell>
        <mxCell id="ej4aMwP51FxoH4-8wQIa-15" value="2" style="edgeLabel;html=1;align=center;verticalAlign=middle;resizable=0;points=[];fontSize=14;" vertex="1" connectable="0" parent="ej4aMwP51FxoH4-8wQIa-13">
          <mxGeometry x="-0.1667" y="-1" relative="1" as="geometry">
            <mxPoint x="-30.89" y="0.6500000000000004" as="offset" />
          </mxGeometry>
        </mxCell>
        <mxCell id="ej4aMwP51FxoH4-8wQIa-17" value="" style="endArrow=classic;html=1;fontSize=14;entryX=0.5;entryY=0;entryDx=0;entryDy=0;exitX=1.025;exitY=0.825;exitDx=0;exitDy=0;exitPerimeter=0;" edge="1" parent="1" source="ej4aMwP51FxoH4-8wQIa-1" target="ej4aMwP51FxoH4-8wQIa-5">
          <mxGeometry width="50" height="50" relative="1" as="geometry">
            <mxPoint x="440" y="450" as="sourcePoint" />
            <mxPoint x="490" y="400" as="targetPoint" />
          </mxGeometry>
        </mxCell>
        <mxCell id="ej4aMwP51FxoH4-8wQIa-18" value="10" style="edgeLabel;html=1;align=center;verticalAlign=middle;resizable=0;points=[];fontSize=14;" vertex="1" connectable="0" parent="ej4aMwP51FxoH4-8wQIa-17">
          <mxGeometry x="-0.1328" relative="1" as="geometry">
            <mxPoint x="30.24" y="2.08" as="offset" />
          </mxGeometry>
        </mxCell>
        <mxCell id="ej4aMwP51FxoH4-8wQIa-19" value="" style="endArrow=classic;html=1;fontSize=14;exitX=0.5;exitY=1;exitDx=0;exitDy=0;entryX=0.5;entryY=1;entryDx=0;entryDy=0;" edge="1" parent="1" source="ej4aMwP51FxoH4-8wQIa-3" target="ej4aMwP51FxoH4-8wQIa-2">
          <mxGeometry width="50" height="50" relative="1" as="geometry">
            <mxPoint x="450" y="460" as="sourcePoint" />
            <mxPoint x="500" y="410" as="targetPoint" />
            <Array as="points">
              <mxPoint x="320" y="520" />
            </Array>
          </mxGeometry>
        </mxCell>
        <mxCell id="ej4aMwP51FxoH4-8wQIa-20" value="2" style="edgeLabel;html=1;align=center;verticalAlign=middle;resizable=0;points=[];fontSize=14;" vertex="1" connectable="0" parent="ej4aMwP51FxoH4-8wQIa-19">
          <mxGeometry x="-0.0984" y="2" relative="1" as="geometry">
            <mxPoint x="13.11" y="19.8" as="offset" />
          </mxGeometry>
        </mxCell>
        <mxCell id="ej4aMwP51FxoH4-8wQIa-21" value="" style="endArrow=classic;html=1;fontSize=14;exitX=1;exitY=0.5;exitDx=0;exitDy=0;" edge="1" parent="1" source="ej4aMwP51FxoH4-8wQIa-4">
          <mxGeometry width="50" height="50" relative="1" as="geometry">
            <mxPoint x="460" y="470" as="sourcePoint" />
            <mxPoint x="440" y="420" as="targetPoint" />
          </mxGeometry>
        </mxCell>
        <mxCell id="ej4aMwP51FxoH4-8wQIa-22" value="1" style="edgeLabel;html=1;align=center;verticalAlign=middle;resizable=0;points=[];fontSize=14;" vertex="1" connectable="0" parent="ej4aMwP51FxoH4-8wQIa-21">
          <mxGeometry x="-0.22" y="-2" relative="1" as="geometry">
            <mxPoint x="11" y="-22" as="offset" />
          </mxGeometry>
        </mxCell>
        <mxCell id="ej4aMwP51FxoH4-8wQIa-23" value="" style="endArrow=classic;html=1;fontSize=14;exitX=0.5;exitY=1;exitDx=0;exitDy=0;entryX=0.5;entryY=1;entryDx=0;entryDy=0;" edge="1" parent="1" source="ej4aMwP51FxoH4-8wQIa-4" target="ej4aMwP51FxoH4-8wQIa-5">
          <mxGeometry width="50" height="50" relative="1" as="geometry">
            <mxPoint x="470" y="480" as="sourcePoint" />
            <mxPoint x="520" y="430" as="targetPoint" />
            <Array as="points">
              <mxPoint x="460" y="520" />
            </Array>
          </mxGeometry>
        </mxCell>
        <mxCell id="ej4aMwP51FxoH4-8wQIa-24" value="1" style="edgeLabel;html=1;align=center;verticalAlign=middle;resizable=0;points=[];fontSize=14;" vertex="1" connectable="0" parent="ej4aMwP51FxoH4-8wQIa-23">
          <mxGeometry x="-0.0815" y="-2" relative="1" as="geometry">
            <mxPoint x="18.46" y="18.8" as="offset" />
          </mxGeometry>
        </mxCell>
        <mxCell id="ej4aMwP51FxoH4-8wQIa-25" value="" style="endArrow=classic;html=1;fontSize=14;entryX=0;entryY=0.5;entryDx=0;entryDy=0;" edge="1" parent="1" target="ej4aMwP51FxoH4-8wQIa-5">
          <mxGeometry width="50" height="50" relative="1" as="geometry">
            <mxPoint x="480" y="420" as="sourcePoint" />
            <mxPoint x="530" y="440" as="targetPoint" />
          </mxGeometry>
        </mxCell>
        <mxCell id="ej4aMwP51FxoH4-8wQIa-26" value="3" style="edgeLabel;html=1;align=center;verticalAlign=middle;resizable=0;points=[];fontSize=14;" vertex="1" connectable="0" parent="ej4aMwP51FxoH4-8wQIa-25">
          <mxGeometry x="-0.5" y="-1" relative="1" as="geometry">
            <mxPoint x="20" y="-21" as="offset" />
          </mxGeometry>
        </mxCell>
      </root>
    </mxGraphModel>
  </diagram>
</mxfile>
